<?xml version="1.0" encoding="utf-8"?>
<!-- Generator: Adobe Illustrator 26.3.1, SVG Export Plug-In . SVG Version: 6.00 Build 0)  -->
<svg version="1.1" id="Layer_1" xmlns="http://www.w3.org/2000/svg" xmlns:xlink="http://www.w3.org/1999/xlink" x="0px" y="0px"
	 viewBox="0 0 281.8 199.4" style="enable-background:new 0 0 281.8 199.4;" xml:space="preserve">
<style type="text/css">
	.st0{fill:#FFFFFF;}
</style>
<g id="Layer_2_00000055674275142483760260000009054646164371197860_">
	<g id="Layer_1-2">
		<path class="st0" d="M142.2,127.1l-12.6,72.3l-41.3-47.1L0,199.4l62.8-76.2L21.5,76.2h72.1l-10.2,30.2l17.6,4.6
			c3.8-6,8.7-7.7,13.2-7.7c8,0,11.1,5.9,10,11.7c-1.5,6.7-7.4,11.6-14.2,11.8c-1.4,0-2.8-0.2-4.1-0.7c-2.3-0.9-4.3-2.6-5.4-4.8h-23
			c0,14.1,10.1,25.8,29.3,25.8C121.3,147.1,134.8,139.5,142.2,127.1z"/>
		<path class="st0" d="M114.5,74.9h36.8l-0.2,1.2l-4.4,25.2c-2.4-9-9.6-16.9-23.8-16.9c-7,0-9.9,1.3-12.6,2.7L114.5,74.9z"/>
		<polygon class="st0" points="164.3,0 154.6,55.7 118.4,55.7 		"/>
		<path class="st0" d="M196.5,55.9c-25.3,0-41.6,13.8-46.2,40.6l-1.9,10.8c-0.5,2.9-0.7,5.8-0.8,8.7c0,21.5,15.8,31.1,32.5,31.1
			h25.2l4.2-20.6c-6.3,0.1-17.9-0.1-23.8-0.1c-9.9,0-13.8-2.8-13.8-10.8c0.1-2.1,0.3-4.2,0.6-6.3h49.6c2,0,3.4-1.4,3.9-3.7l1.6-9
			c0.5-2.8,0.7-5.5,0.8-8.3C228.3,70.2,217.4,55.9,196.5,55.9z M204.2,93.8h-29.1c2.3-10.7,7.3-17.8,17.8-17.8
			c8.6,0,12.1,3.9,12.1,11C204.9,89.3,204.7,91.6,204.2,93.8z"/>
		<path class="st0" d="M275.6,55.8H222c6.4,5,10.5,12.2,12.2,20.6h18.1l-7.9,44.6c-0.6,3.9-1.4,5.6-4.9,5.6h-14.7l-4,20.6H238
			c16.8,0,29.2-5.1,32.9-26.2l10.8-60.8c0.4-2.3,0.6-4.4-2.2-4.4L275.6,55.8z"/>
	</g>
</g>
</svg>
