<?xml version="1.0" encoding="utf-8"?>
<!-- Generator: Adobe Illustrator 16.0.0, SVG Export Plug-In . SVG Version: 6.00 Build 0)  -->
<!DOCTYPE svg PUBLIC "-//W3C//DTD SVG 1.1//EN" "http://www.w3.org/Graphics/SVG/1.1/DTD/svg11.dtd">
<svg version="1.1" id="Layer_1" xmlns="http://www.w3.org/2000/svg" xmlns:xlink="http://www.w3.org/1999/xlink" x="0px" y="0px"
	 width="615.54px" height="134.111px" viewBox="0 0 615.54 134.111" enable-background="new 0 0 615.54 134.111"
	 xml:space="preserve">
<g>
	<defs>
		<path id="SVGID_1_" d="M513.635,25.575c-2.435,14.246,5.891,27.815,19.702,32.081l56.758,15.807
			c4.876,1.516,7.822,6.318,6.955,11.367c-0.858,5.049-5.219,8.597-10.325,8.4c0,0-14.762,0.024-19.684,0.024
			c-2.513,0-4.738,2.05-4.738,4.724v9.083c0,2.752,2.401,4.722,4.738,4.722c4.938,0,19.751-0.045,19.751-0.045
			c14.007,0.138,25.953-9.878,28.327-23.822c0.277-1.623,0.415-3.237,0.421-4.831v-0.208c-0.047-12.271-7.922-23.226-20.025-26.976
			L536.76,39.192c-3.814-1.282-5.708-6.199-4.965-10.518c0.862-5.053,4.549-8.476,10.032-8.476c0,0,15.114,0.027,20.151,0.027
			c2.587,0,4.732-2.147,4.732-4.721V6.291c0-2.205-1.745-4.725-4.641-4.725h-19.996c-0.091-0.001-0.183-0.001-0.272-0.001
			C527.855,1.564,515.999,11.696,513.635,25.575"/>
	</defs>
	<use xlink:href="#SVGID_1_"  overflow="visible" fill="#fff"/>
	<clipPath id="SVGID_2_">
		<use xlink:href="#SVGID_1_"  overflow="visible"/>
	</clipPath>
	<rect x="511.2" y="1.564" clip-path="url(#SVGID_2_)" fill="#fff" width="104.34" height="110.312"/>
</g>
<g>
	<defs>
		<path id="SVGID_3_" d="M490.264,1.566c-2.236,0-4.726,1.753-4.726,4.728v83.908c0,2.337,1.926,4.727,4.726,4.727h9.334
			c2.378,0,4.727-1.904,4.727-4.727V6.294c0-2.417-1.992-4.728-4.727-4.728H490.264z"/>
	</defs>
	<use xlink:href="#SVGID_3_"  overflow="visible" fill="#fff"/>
	<clipPath id="SVGID_4_">
		<use xlink:href="#SVGID_3_"  overflow="visible"/>
	</clipPath>
	<rect x="485.538" y="1.566" clip-path="url(#SVGID_4_)" fill="#fff" width="18.786" height="93.362"/>
</g>
<g>
	<defs>
		<path id="SVGID_5_" d="M351.586,1.566c-2.238,0-4.726,1.753-4.726,4.728v83.908c0,2.337,1.927,4.727,4.726,4.727h9.335
			c2.377,0,4.726-1.904,4.726-4.727V6.294c0-2.417-1.992-4.728-4.726-4.728H351.586z"/>
	</defs>
	<use xlink:href="#SVGID_5_"  overflow="visible" fill="#fff"/>
	<clipPath id="SVGID_6_">
		<use xlink:href="#SVGID_5_"  overflow="visible"/>
	</clipPath>
	<rect x="346.86" y="1.566" clip-path="url(#SVGID_6_)" fill="#fff" width="18.785" height="93.362"/>
</g>
<g>
	<defs>
		<path id="SVGID_7_" d="M375.452,6.292v100.769c0,2.091,1.633,4.726,4.727,4.726h9.317c3.321,0,4.739-2.942,4.739-4.726V20.352
			h49.049l0.01,0.023c5.154-0.196,9.568,3.392,10.437,8.478c0.867,5.097-2.386,8.987-7.224,11.528l-11.352,6.555
			c-2.699,1.738-2.902,4.384-1.82,6.606l26.387,45.931c1.456,2.511,4.591,2.731,6.503,1.62l7.373-4.329
			c2.344-1.387,2.932-4.429,1.788-6.294c-0.04-0.071-19.497-33.868-19.497-33.868c11.639-5.864,18.342-17.855,16.12-30.869
			C469.61,11.66,457.588,1.451,443.399,1.602c0,0-47.415-0.034-63.221-0.034C378.152,1.568,375.452,3.273,375.452,6.292"/>
	</defs>
	<use xlink:href="#SVGID_7_"  overflow="visible" fill="#fff"/>
	<clipPath id="SVGID_8_">
		<use xlink:href="#SVGID_7_"  overflow="visible"/>
	</clipPath>
	<rect x="375.452" y="1.451" clip-path="url(#SVGID_8_)" fill="#fff" width="101.077" height="110.336"/>
</g>
<g>
	<defs>
		<path id="SVGID_9_" d="M322.896,20.352c-2.83,0-4.732,2.391-4.732,4.726v41.296c0,9.271-2.289,16.269-6.805,20.797
			c-4.998,5.015-13.202,7.558-24.385,7.558c-20.714,0-33.08-10.601-33.08-28.355V25.078c0-2.467-1.969-4.726-4.731-4.726h-9.447
			c-3.062,0-4.726,2.572-4.726,4.726v41.296c0,28.267,20.891,47.256,51.984,47.256c31.835,0,50.094-17.224,50.094-47.256V25.078
			c0-2.653-2.142-4.726-4.727-4.726H322.896z"/>
	</defs>
	<use xlink:href="#SVGID_9_"  overflow="visible" fill="#fff"/>
	<clipPath id="SVGID_10_">
		<use xlink:href="#SVGID_9_"  overflow="visible"/>
	</clipPath>
	<rect x="234.99" y="20.352" clip-path="url(#SVGID_10_)" fill="#fff" width="102.078" height="93.278"/>
</g>
<g>
	<defs>
		<path id="SVGID_11_" d="M36.238,77.532l23.717-41.08c1.226-2.148,2.767-2.387,4.002-0.432l23.967,41.512h-0.001
			c1.831,3.159,0.737,6.185-3.199,6.185H39.438C35.502,83.716,34.408,80.691,36.238,77.532 M57.951,3.978L0.539,104.635
			c-1.401,2.666-0.078,7.151,4.065,7.151h10.151c2.582,0,3.826-1.883,4.185-2.511l2.567-4.487v0.001
			c1.195-2.138,2.698-2.839,5.395-2.839h70.409c2.696,0,4.198,0.701,5.393,2.836l2.692,4.589c1.053,1.738,2.621,2.411,4.12,2.411
			h9.83c4.688,0,5.93-4.344,4.616-6.801L66.23,3.997c0,0-1.263-2.431-4.15-2.431C59.169,1.566,57.951,3.978,57.951,3.978"/>
	</defs>
	<use xlink:href="#SVGID_11_"  overflow="visible" fill="#fff"/>
	<clipPath id="SVGID_12_">
		<use xlink:href="#SVGID_11_"  overflow="visible"/>
	</clipPath>
	<rect x="-0.862" y="1.566" clip-path="url(#SVGID_12_)" fill="#fff" width="126.138" height="110.221"/>
</g>
<g>
	<defs>
		<path id="SVGID_13_" d="M170.117,95.585c-20.457-0.025-36.994-16.4-36.955-36.619c0-0.478-0.627-14.64,8.232-29.257
			c0.852-1.301,1.742-1.57,2.693,0.11l35.852,62.309c0.551,1.05-0.277,2.199-1.374,2.506c-2.7,0.62-5.515,0.951-8.401,0.951
			C170.148,95.585,170.133,95.585,170.117,95.585 M194.918,83.302l-36.225-62.438c-0.516-0.848-0.425-1.735,0.854-1.935
			c0.103-0.006,0.202-0.014,0.307-0.021c17.477-0.427,29.767,7.359,30.185,7.599c17.733,10.138,23.731,32.583,13.408,50.132
			c-1.681,2.854-3.702,5.378-5.962,7.596c-0.343,0.273-0.663,0.395-0.962,0.395C195.906,84.629,195.379,84.107,194.918,83.302
			 M137.665,1.775c-13.075,14.635-18.532,30.494-20.803,41.837c-1.271,4.562-1.383,10.552-1.393,15.507
			c-0.038,29.829,24.368,53.999,54.555,54.028c5.665,0.011,11.124-0.847,16.272-2.419l-0.003,0.015
			c1.836-0.682,4.039-0.801,5.194,1.455c0.086,0.167,0.163,0.296,0.239,0.407l0.303,0.524l1.936,3.369l-0.001,0.001
			c1.061,2.033,0.353,4.295-1.467,5.369l-8.179,4.252c-0.253,0.102-0.492,0.227-0.718,0.373l-0.035,0.019l0.002,0.002
			c-1.116,0.743-1.853,2.012-1.853,3.452c0,2.288,1.855,4.145,4.145,4.145s4.144-1.856,4.144-4.145c0-1.593-0.898-2.973-2.214-3.666
			l13.005-6.765c0.084-0.036,0.17-0.055,0.252-0.097l7.141-3.718c0.065-0.039,0.122-0.083,0.185-0.124l15.53-8.076
			c1.574-0.839,3.098-2.032,3.109-3.924c0.009-2.249-1.826-4.066-4.102-4.066c-2.273-0.003-4.124,1.807-4.137,4.053
			c-0.006,1.516,0.832,2.834,2.08,3.538l-6.369,3.308c-2.059,0.764-4.017-0.198-5.236-2.456l-2.098-3.585l-0.279-0.48
			c-1.013-1.656-0.519-3.902,0.8-5.052l-0.07,0.046c4.315-3.756,8.106-8.246,11.158-13.427
			c15.268-25.898,6.423-59.073-19.782-74.038c-4.346-2.486-9.649-5.392-14.289-6.587C177.166,2.314,167.095,0,155.355,0
			C149.8,0,143.874,0.518,137.665,1.775"/>
	</defs>
	<use xlink:href="#SVGID_13_"  overflow="visible" fill="#fff"/>
	<clipPath id="SVGID_14_">
		<use xlink:href="#SVGID_13_"  overflow="visible"/>
	</clipPath>
	<rect x="115.431" clip-path="url(#SVGID_14_)" fill="#fff" width="118.595" height="134.111"/>
</g>
</svg>
